<mxfile host="65bd71144e">
    <diagram id="CeHiuRVZcEUCsCmMBURG" name="Page-1">
        <mxGraphModel dx="618" dy="480" grid="0" gridSize="10" guides="1" tooltips="1" connect="1" arrows="1" fold="1" page="1" pageScale="1" pageWidth="850" pageHeight="1100" background="#ffffff" math="0" shadow="0">
            <root>
                <mxCell id="0"/>
                <mxCell id="1" parent="0"/>
                <mxCell id="2" value="ARM cortexA&lt;br&gt;" style="rounded=0;whiteSpace=wrap;html=1;fillColor=#647687;fontColor=#ffffff;strokeColor=#314354;" parent="1" vertex="1">
                    <mxGeometry x="387" y="706" width="120" height="60" as="geometry"/>
                </mxCell>
                <mxCell id="3" value="Battery module" style="rounded=1;whiteSpace=wrap;html=1;fillColor=#647687;fontColor=#ffffff;strokeColor=#314354;" parent="1" vertex="1">
                    <mxGeometry x="387" y="816" width="120" height="60" as="geometry"/>
                </mxCell>
                <mxCell id="4" value="Lora module" style="rounded=1;whiteSpace=wrap;html=1;fillColor=#647687;fontColor=#ffffff;strokeColor=#314354;" parent="1" vertex="1">
                    <mxGeometry x="567" y="706" width="120" height="60" as="geometry"/>
                </mxCell>
                <mxCell id="5" value="Lte module&lt;br&gt;(RF9160)" style="rounded=1;whiteSpace=wrap;html=1;fillColor=#647687;fontColor=#ffffff;strokeColor=#314354;" parent="1" vertex="1">
                    <mxGeometry x="197" y="706" width="120" height="60" as="geometry"/>
                </mxCell>
                <mxCell id="6" value="WiFi module M.2&lt;br&gt;(-----)" style="rounded=1;whiteSpace=wrap;html=1;fillColor=#647687;strokeColor=#314354;fontColor=#ffffff;" parent="1" vertex="1">
                    <mxGeometry x="392" y="596" width="120" height="60" as="geometry"/>
                </mxCell>
                <mxCell id="7" value="Lora module&lt;br&gt;(sx1278-433MHz)" style="rounded=1;whiteSpace=wrap;html=1;fillColor=#a0522d;fontColor=#ffffff;strokeColor=#6D1F00;" parent="1" vertex="1">
                    <mxGeometry x="937" y="706" width="120" height="60" as="geometry"/>
                </mxCell>
                <mxCell id="8" value="uC&lt;br&gt;(STM32F7)" style="rounded=0;whiteSpace=wrap;html=1;fillColor=#a0522d;fontColor=#ffffff;strokeColor=#6D1F00;" parent="1" vertex="1">
                    <mxGeometry x="1107" y="706" width="120" height="60" as="geometry"/>
                </mxCell>
                <mxCell id="13" value="&lt;font color=&quot;#000000&quot; style=&quot;font-size: 20px;&quot;&gt;GATEWAY&lt;/font&gt;" style="rounded=0;whiteSpace=wrap;html=1;dashed=1;strokeWidth=3;fillColor=none;strokeColor=none;" parent="1" vertex="1">
                    <mxGeometry x="384.5" y="496" width="135" height="60" as="geometry"/>
                </mxCell>
                <mxCell id="14" value="&lt;font color=&quot;#000000&quot; style=&quot;font-size: 20px;&quot;&gt;NODE&lt;/font&gt;" style="rounded=0;whiteSpace=wrap;html=1;dashed=1;strokeWidth=3;fillColor=none;strokeColor=none;" parent="1" vertex="1">
                    <mxGeometry x="1099.5" y="576" width="135" height="60" as="geometry"/>
                </mxCell>
                <mxCell id="15" value="" style="shape=flexArrow;endArrow=classic;startArrow=classic;html=1;fontSize=20;fillColor=#d0cee2;strokeColor=#56517e;" parent="1" edge="1">
                    <mxGeometry width="100" height="100" relative="1" as="geometry">
                        <mxPoint x="727" y="736" as="sourcePoint"/>
                        <mxPoint x="907" y="736" as="targetPoint"/>
                    </mxGeometry>
                </mxCell>
                <mxCell id="18" value="" style="endArrow=classic;html=1;fontSize=20;exitX=0.5;exitY=0;exitDx=0;exitDy=0;entryX=0.5;entryY=1;entryDx=0;entryDy=0;fillColor=#647687;strokeColor=#314354;" parent="1" source="3" target="2" edge="1">
                    <mxGeometry width="50" height="50" relative="1" as="geometry">
                        <mxPoint x="417" y="776" as="sourcePoint"/>
                        <mxPoint x="467" y="726" as="targetPoint"/>
                    </mxGeometry>
                </mxCell>
                <mxCell id="19" value="" style="endArrow=classic;startArrow=classic;html=1;fontSize=20;exitX=1;exitY=0.5;exitDx=0;exitDy=0;entryX=0;entryY=0.5;entryDx=0;entryDy=0;fillColor=#647687;strokeColor=#314354;" parent="1" source="5" target="2" edge="1">
                    <mxGeometry width="50" height="50" relative="1" as="geometry">
                        <mxPoint x="417" y="776" as="sourcePoint"/>
                        <mxPoint x="467" y="726" as="targetPoint"/>
                    </mxGeometry>
                </mxCell>
                <mxCell id="20" value="" style="endArrow=classic;startArrow=classic;html=1;fontSize=20;exitX=1;exitY=0.5;exitDx=0;exitDy=0;fillColor=#647687;strokeColor=#314354;" parent="1" edge="1">
                    <mxGeometry width="50" height="50" relative="1" as="geometry">
                        <mxPoint x="507" y="735.6" as="sourcePoint"/>
                        <mxPoint x="567" y="736" as="targetPoint"/>
                    </mxGeometry>
                </mxCell>
                <mxCell id="21" value="" style="endArrow=classic;startArrow=classic;html=1;fontSize=20;entryX=0.458;entryY=1.06;entryDx=0;entryDy=0;entryPerimeter=0;fillColor=#647687;strokeColor=#314354;" parent="1" source="2" target="6" edge="1">
                    <mxGeometry width="50" height="50" relative="1" as="geometry">
                        <mxPoint x="337" y="756" as="sourcePoint"/>
                        <mxPoint x="407" y="756" as="targetPoint"/>
                    </mxGeometry>
                </mxCell>
                <mxCell id="22" value="" style="endArrow=classic;startArrow=classic;html=1;fontSize=20;exitX=1.023;exitY=0.49;exitDx=0;exitDy=0;exitPerimeter=0;fillColor=#a0522d;strokeColor=#6D1F00;" parent="1" source="7" edge="1">
                    <mxGeometry width="50" height="50" relative="1" as="geometry">
                        <mxPoint x="1062" y="735.44" as="sourcePoint"/>
                        <mxPoint x="1107" y="735" as="targetPoint"/>
                    </mxGeometry>
                </mxCell>
                <mxCell id="25" value="&lt;font style=&quot;font-size: 12px;&quot;&gt;GPS module&lt;br&gt;(RF9160)&lt;br&gt;&lt;/font&gt;" style="rounded=1;whiteSpace=wrap;html=1;strokeWidth=1;fontSize=20;fillColor=#647687;strokeColor=#314354;fontColor=#ffffff;" parent="1" vertex="1">
                    <mxGeometry x="197" y="596" width="120" height="60" as="geometry"/>
                </mxCell>
                <mxCell id="29" value="Ethernet module&lt;br&gt;(----)" style="rounded=1;whiteSpace=wrap;html=1;fillColor=#647687;fontColor=#ffffff;strokeColor=#314354;" parent="1" vertex="1">
                    <mxGeometry x="567" y="596" width="120" height="60" as="geometry"/>
                </mxCell>
                <mxCell id="30" value="Puerto RS485&lt;br&gt;(Modbus)" style="rounded=1;whiteSpace=wrap;html=1;strokeColor=#6D1F00;strokeWidth=1;fontSize=12;fillColor=#a0522d;fontColor=#ffffff;" parent="1" vertex="1">
                    <mxGeometry x="1277" y="676" width="120" height="40" as="geometry"/>
                </mxCell>
                <mxCell id="32" value="" style="endArrow=classic;startArrow=classic;html=1;fontSize=20;exitX=1;exitY=0;exitDx=0;exitDy=0;entryX=0;entryY=1;entryDx=0;entryDy=0;fillColor=#647687;strokeColor=#314354;" parent="1" source="2" target="29" edge="1">
                    <mxGeometry width="50" height="50" relative="1" as="geometry">
                        <mxPoint x="517" y="745.6" as="sourcePoint"/>
                        <mxPoint x="577" y="746" as="targetPoint"/>
                    </mxGeometry>
                </mxCell>
                <mxCell id="33" value="" style="endArrow=classic;startArrow=classic;html=1;fontSize=20;exitX=0;exitY=0;exitDx=0;exitDy=0;entryX=0.983;entryY=0.965;entryDx=0;entryDy=0;entryPerimeter=0;fillColor=#647687;strokeColor=#314354;" parent="1" source="2" target="25" edge="1">
                    <mxGeometry width="50" height="50" relative="1" as="geometry">
                        <mxPoint x="517" y="716" as="sourcePoint"/>
                        <mxPoint x="577" y="666" as="targetPoint"/>
                    </mxGeometry>
                </mxCell>
                <mxCell id="34" value="" style="endArrow=classic;startArrow=classic;html=1;fontSize=20;exitX=1.005;exitY=0.334;exitDx=0;exitDy=0;exitPerimeter=0;entryX=0;entryY=0.5;entryDx=0;entryDy=0;fillColor=#a0522d;strokeColor=#6D1F00;" parent="1" source="8" target="30" edge="1">
                    <mxGeometry width="50" height="50" relative="1" as="geometry">
                        <mxPoint x="1227.0000000000002" y="736.2" as="sourcePoint"/>
                        <mxPoint x="1274.24" y="735.8" as="targetPoint"/>
                    </mxGeometry>
                </mxCell>
                <mxCell id="35" value="Electric&amp;nbsp;Power System" style="rounded=1;whiteSpace=wrap;html=1;fillColor=#a0522d;fontColor=#ffffff;strokeColor=#6D1F00;" parent="1" vertex="1">
                    <mxGeometry x="1107" y="816" width="120" height="60" as="geometry"/>
                </mxCell>
                <mxCell id="36" value="" style="endArrow=classic;html=1;entryX=0.5;entryY=1;entryDx=0;entryDy=0;fillColor=#a0522d;strokeColor=#6D1F00;" parent="1" target="8" edge="1">
                    <mxGeometry width="50" height="50" relative="1" as="geometry">
                        <mxPoint x="1167" y="816" as="sourcePoint"/>
                        <mxPoint x="1217" y="766" as="targetPoint"/>
                    </mxGeometry>
                </mxCell>
                <mxCell id="41" value="&lt;a href=&quot;https://github.com/Quetzal-1-CubeSat-Team/quetzal1-hardware/tree/master&quot;&gt;&lt;font style=&quot;font-size: 10px;&quot;&gt;Quetzal-1-CubeSat-Team/quetzal1-hardware: Hardware design files for the Quetzal-1 mission. (github.com)&lt;/font&gt;&lt;/a&gt;" style="text;whiteSpace=wrap;html=1;" parent="1" vertex="1">
                    <mxGeometry x="922" y="906" width="490" height="30" as="geometry"/>
                </mxCell>
                <mxCell id="42" value="USB connector" style="rounded=1;whiteSpace=wrap;html=1;fillColor=#a0522d;fontColor=#ffffff;strokeColor=#6D1F00;" parent="1" vertex="1">
                    <mxGeometry x="1277" y="726" width="120" height="30" as="geometry"/>
                </mxCell>
                <mxCell id="43" value="" style="endArrow=classic;startArrow=classic;html=1;fontSize=20;entryX=0;entryY=0.5;entryDx=0;entryDy=0;fillColor=#a0522d;strokeColor=#6D1F00;" parent="1" target="42" edge="1">
                    <mxGeometry width="50" height="50" relative="1" as="geometry">
                        <mxPoint x="1227" y="736" as="sourcePoint"/>
                        <mxPoint x="1287.0000000000002" y="706" as="targetPoint"/>
                    </mxGeometry>
                </mxCell>
                <mxCell id="46" value="&lt;font color=&quot;#666666&quot;&gt;Caja IP as enclosure&lt;/font&gt;" style="rounded=1;whiteSpace=wrap;html=1;fillColor=none;strokeColor=none;" parent="1" vertex="1">
                    <mxGeometry x="1114.5" y="626" width="120" height="20" as="geometry"/>
                </mxCell>
                <mxCell id="48" value="EEPROM" style="rounded=1;whiteSpace=wrap;html=1;fillColor=#a0522d;fontColor=#ffffff;strokeColor=#6D1F00;" parent="1" vertex="1">
                    <mxGeometry x="1277" y="766" width="120" height="30" as="geometry"/>
                </mxCell>
                <mxCell id="49" value="" style="endArrow=classic;startArrow=classic;html=1;fontSize=20;entryX=0;entryY=0.5;entryDx=0;entryDy=0;exitX=1;exitY=0.75;exitDx=0;exitDy=0;fillColor=#a0522d;strokeColor=#6D1F00;" parent="1" source="8" target="48" edge="1">
                    <mxGeometry width="50" height="50" relative="1" as="geometry">
                        <mxPoint x="1227" y="736" as="sourcePoint"/>
                        <mxPoint x="1277.0000000000002" y="796" as="targetPoint"/>
                    </mxGeometry>
                </mxCell>
                <mxCell id="55" value="Puerto I2C" style="rounded=1;whiteSpace=wrap;html=1;fillColor=#a0522d;fontColor=#ffffff;strokeColor=#6D1F00;" parent="1" vertex="1">
                    <mxGeometry x="1277" y="636" width="120" height="30" as="geometry"/>
                </mxCell>
                <mxCell id="56" value="" style="endArrow=classic;startArrow=classic;html=1;fontSize=20;exitX=1.023;exitY=0.49;exitDx=0;exitDy=0;exitPerimeter=0;entryX=0;entryY=0.5;entryDx=0;entryDy=0;fillColor=#a0522d;strokeColor=#6D1F00;" parent="1" target="55" edge="1">
                    <mxGeometry width="50" height="50" relative="1" as="geometry">
                        <mxPoint x="1227" y="706" as="sourcePoint"/>
                        <mxPoint x="1277" y="665.8" as="targetPoint"/>
                    </mxGeometry>
                </mxCell>
                <mxCell id="57" value="&lt;font color=&quot;#666666&quot;&gt;Adaptable para ciudad y campo(WiFi o Lora)&lt;/font&gt;" style="rounded=1;whiteSpace=wrap;html=1;fillColor=none;strokeColor=none;" parent="1" vertex="1">
                    <mxGeometry x="922" y="886" width="265" height="20" as="geometry"/>
                </mxCell>
                <mxCell id="58" value="Backup storage" style="rounded=1;whiteSpace=wrap;html=1;fillColor=#a0522d;fontColor=#ffffff;strokeColor=#6D1F00;" parent="1" vertex="1">
                    <mxGeometry x="1277" y="806" width="120" height="30" as="geometry"/>
                </mxCell>
                <mxCell id="59" value="" style="endArrow=classic;startArrow=classic;html=1;fontSize=20;entryX=0;entryY=0.5;entryDx=0;entryDy=0;fillColor=#a0522d;strokeColor=#6D1F00;" parent="1" target="58" edge="1">
                    <mxGeometry width="50" height="50" relative="1" as="geometry">
                        <mxPoint x="1227" y="766" as="sourcePoint"/>
                        <mxPoint x="1287" y="806" as="targetPoint"/>
                    </mxGeometry>
                </mxCell>
                <mxCell id="61" value="" style="verticalLabelPosition=bottom;shadow=0;dashed=0;align=center;html=1;verticalAlign=top;shape=mxgraph.electrical.radio.aerial_-_antenna_1;strokeColor=#6D1F00;fontSize=10;fontColor=#ffffff;fillColor=#a0522d;strokeWidth=2;" parent="1" vertex="1">
                    <mxGeometry x="937" y="666" width="30" height="40" as="geometry"/>
                </mxCell>
                <mxCell id="62" value="NODE" style="ellipse;whiteSpace=wrap;html=1;fontColor=#ffffff;fillColor=#a0522d;strokeColor=#6D1F00;" vertex="1" parent="1">
                    <mxGeometry x="153" y="336" width="120" height="80" as="geometry"/>
                </mxCell>
                <mxCell id="63" value="NODE" style="ellipse;whiteSpace=wrap;html=1;fontColor=#ffffff;fillColor=#a0522d;strokeColor=#6D1F00;" vertex="1" parent="1">
                    <mxGeometry x="309" y="336" width="120" height="80" as="geometry"/>
                </mxCell>
                <mxCell id="64" value="NODE" style="ellipse;whiteSpace=wrap;html=1;fontColor=#ffffff;fillColor=#a0522d;strokeColor=#6D1F00;" vertex="1" parent="1">
                    <mxGeometry x="613" y="336" width="120" height="80" as="geometry"/>
                </mxCell>
                <mxCell id="65" value="" style="endArrow=none;dashed=1;html=1;strokeWidth=8;fontColor=#666666;dashPattern=1 4;fillColor=#1ba1e2;strokeColor=#006EAF;" edge="1" parent="1">
                    <mxGeometry width="50" height="50" relative="1" as="geometry">
                        <mxPoint x="466" y="376" as="sourcePoint"/>
                        <mxPoint x="576" y="376" as="targetPoint"/>
                    </mxGeometry>
                </mxCell>
                <mxCell id="66" value="GATEWAY" style="rounded=1;whiteSpace=wrap;html=1;fontColor=#ffffff;fillColor=#647687;strokeColor=#314354;" vertex="1" parent="1">
                    <mxGeometry x="396" y="176" width="120" height="60" as="geometry"/>
                </mxCell>
                <mxCell id="67" value="" style="endArrow=classic;html=1;dashed=1;dashPattern=1 4;strokeWidth=4;fontColor=#666666;entryX=0;entryY=1;entryDx=0;entryDy=0;fillColor=#1ba1e2;strokeColor=#006EAF;" edge="1" parent="1" target="66">
                    <mxGeometry width="50" height="50" relative="1" as="geometry">
                        <mxPoint x="213" y="336" as="sourcePoint"/>
                        <mxPoint x="263" y="286" as="targetPoint"/>
                    </mxGeometry>
                </mxCell>
                <mxCell id="68" value="" style="endArrow=classic;html=1;dashed=1;dashPattern=1 4;strokeWidth=4;fontColor=#666666;entryX=0.25;entryY=1;entryDx=0;entryDy=0;fillColor=#1ba1e2;strokeColor=#006EAF;exitX=0.5;exitY=0;exitDx=0;exitDy=0;" edge="1" parent="1" source="63" target="66">
                    <mxGeometry width="50" height="50" relative="1" as="geometry">
                        <mxPoint x="222.99999999999977" y="346" as="sourcePoint"/>
                        <mxPoint x="406" y="246" as="targetPoint"/>
                    </mxGeometry>
                </mxCell>
                <mxCell id="69" value="" style="endArrow=classic;html=1;dashed=1;dashPattern=1 4;strokeWidth=4;fontColor=#666666;entryX=1;entryY=1;entryDx=0;entryDy=0;fillColor=#1ba1e2;strokeColor=#006EAF;exitX=0.5;exitY=0;exitDx=0;exitDy=0;" edge="1" parent="1" source="64" target="66">
                    <mxGeometry width="50" height="50" relative="1" as="geometry">
                        <mxPoint x="379" y="346" as="sourcePoint"/>
                        <mxPoint x="436" y="246" as="targetPoint"/>
                    </mxGeometry>
                </mxCell>
                <mxCell id="70" value="" style="sketch=0;pointerEvents=1;shadow=0;dashed=0;html=1;strokeColor=#006EAF;fillColor=#1ba1e2;labelPosition=center;verticalLabelPosition=bottom;outlineConnect=0;verticalAlign=top;align=center;shape=mxgraph.office.clouds.online_backup;fontSize=10;fontColor=#ffffff;" vertex="1" parent="1">
                    <mxGeometry x="409" y="66" width="94" height="101" as="geometry"/>
                </mxCell>
                <mxCell id="71" value="&lt;font color=&quot;#000000&quot;&gt;Lora&lt;/font&gt;" style="rounded=0;whiteSpace=wrap;html=1;fontColor=#666666;fillColor=none;strokeColor=none;" vertex="1" parent="1">
                    <mxGeometry x="259" y="276" width="50" height="10" as="geometry"/>
                </mxCell>
                <mxCell id="73" value="&lt;font color=&quot;#000000&quot;&gt;Lora&lt;/font&gt;" style="rounded=0;whiteSpace=wrap;html=1;fontColor=#666666;fillColor=none;strokeColor=none;" vertex="1" parent="1">
                    <mxGeometry x="396" y="276" width="50" height="10" as="geometry"/>
                </mxCell>
                <mxCell id="75" value="&lt;font color=&quot;#000000&quot;&gt;Lora&lt;/font&gt;" style="rounded=0;whiteSpace=wrap;html=1;fontColor=#666666;fillColor=none;strokeColor=none;" vertex="1" parent="1">
                    <mxGeometry x="596" y="276" width="50" height="10" as="geometry"/>
                </mxCell>
                <mxCell id="76" value="&lt;font color=&quot;#000000&quot;&gt;LTE / WiFi&lt;/font&gt;" style="rounded=0;whiteSpace=wrap;html=1;fontColor=#666666;fillColor=none;strokeColor=none;" vertex="1" parent="1">
                    <mxGeometry x="453" y="156" width="83" height="10" as="geometry"/>
                </mxCell>
            </root>
        </mxGraphModel>
    </diagram>
</mxfile>